<svg xmlns="http://www.w3.org/2000/svg" viewBox="0 0 108 108">
  <rect width="108" height="108" rx="24" fill="#07121f"/>
  <path fill="#10283d" d="M54 13C66 20 77 24 88 27L85 57C82 76 70 90 54 99C38 90 26 76 23 57L20 27C31 24 42 20 54 13Z"/>
  <path fill="none" stroke="#78e7ff" stroke-width="3.2" stroke-linejoin="round" d="M54 16C66 23 76 26 84 29L81 56C79 72 69 84 54 93C39 84 29 72 27 56L24 29C32 26 42 23 54 16Z"/>
  <path fill="none" stroke="#6fd6ff" stroke-width="8.2" stroke-linecap="round" stroke-linejoin="round" d="M33 38C42 29 61 27 74 33C82 37 84 43 79 48C74 53 65 54 54 54C43 54 35 56 31 62C27 68 31 75 38 79C49 86 66 84 77 75"/>
  <path fill="none" stroke="#5be3d0" stroke-width="3" stroke-linecap="round" d="M61 34C68 35 74 40 76 46"/>
  <path fill="none" stroke="#5be3d0" stroke-width="2.4" stroke-linecap="round" opacity=".62" d="M64 28C75 31 83 39 85 50"/>
  <circle cx="70" cy="48" r="3.2" fill="#c6fff6"/>
</svg>
