<svg xmlns="http://www.w3.org/2000/svg" viewBox="0 0 108 108">
<defs><linearGradient id="a" x1="18" y1="16" x2="92" y2="96" gradientUnits="userSpaceOnUse"><stop stop-color="#a9e4ff"/><stop offset=".48" stop-color="#2dd4ff"/><stop offset="1" stop-color="#0067d8"/></linearGradient><linearGradient id="b" x1="26" y1="28" x2="82" y2="84" gradientUnits="userSpaceOnUse"><stop stop-color="#b9e9ff"/><stop offset=".55" stop-color="#2dd4ff"/><stop offset="1" stop-color="#00e0c2"/></linearGradient></defs>
<rect width="108" height="108" rx="24" fill="#061018"/>
<path d="M54 11C68 20 79 24 89 29L86 57C83 77 71 91 54 99C37 91 25 77 22 57L19 29C29 24 40 20 54 11Z" fill="url(#a)"/>
<path d="M54 20C66 27 75 30 81 33L78 55C76 69 67 80 54 88C41 80 32 69 30 55L27 33C34 30 43 27 54 20Z" fill="#061018"/>
<path d="M31 37C42 26 62 25 76 32C84 36 86 43 81 49C75 55 65 56 54 56C43 56 35 58 31 64C27 70 31 77 39 81C50 87 68 84 78 74" fill="none" stroke="url(#b)" stroke-width="9" stroke-linecap="round" stroke-linejoin="round"/>
<path d="M58 31C70 32 80 40 83 52M60 39C68 40 74 45 76 52" fill="none" stroke="#00e0c2" stroke-opacity=".72" stroke-width="2.8" stroke-linecap="round"/><circle cx="70" cy="52" r="3.1" fill="#e9ffff"/>
</svg>